# Blender v3.0.0 OBJ File: 'site icon.blend'
# www.blender.org
mtllib Pyramid Icon obj.mtl
o Cube
v 0.000000 1.641343 0.000000
v 1.000000 0.015433 -1.000000
v 0.000000 1.641343 0.000000
v 1.000000 0.015433 1.000000
v 0.000000 1.641343 0.000000
v -1.000000 0.015433 -1.000000
v 0.000000 1.641343 0.000000
v -1.000000 0.015433 1.000000
v 0.390368 1.006639 -0.390368
v -0.390368 1.006639 0.390368
v 0.390368 1.006639 0.390368
v -0.390368 1.006639 -0.390368
v 0.726916 0.459443 -0.726916
v 0.726916 0.459443 0.726916
v -0.726916 0.459443 -0.726916
v -0.726916 0.459443 0.726916
vt 0.625000 0.500000
vt 0.875000 0.500000
vt 0.875000 0.750000
vt 0.625000 0.750000
vt 0.527408 0.750000
vt 0.625000 1.000000
vt 0.527408 1.000000
vt 0.527408 0.000000
vt 0.625000 0.000000
vt 0.625000 0.250000
vt 0.527408 0.250000
vt 0.125000 0.500000
vt 0.375000 0.500000
vt 0.375000 0.750000
vt 0.125000 0.750000
vt 0.527408 0.500000
vt 0.443271 0.500000
vt 0.443271 0.750000
vt 0.443271 1.000000
vt 0.375000 1.000000
vt 0.375000 0.000000
vt 0.443271 0.000000
vt 0.443271 0.250000
vt 0.375000 0.250000
vn 0.0000 0.0000 1.0000
vn 0.0000 0.5239 0.8518
vn -0.8518 0.5239 0.0000
vn 0.0000 -1.0000 0.0000
vn 0.8518 0.5239 0.0000
vn 0.0000 0.5239 -0.8518
usemtl Red
s off
f 1/1/1 5/2/1 7/3/1 3/4/1
f 11/5/2 3/4/2 7/6/2 10/7/2
f 10/8/3 7/9/3 5/10/3 12/11/3
f 6/12/4 2/13/4 4/14/4 8/15/4
f 9/16/5 1/1/5 3/4/5 11/5/5
f 13/17/5 9/16/5 11/5/5 14/18/5
f 14/18/2 11/5/2 10/7/2 16/19/2
f 4/14/2 14/18/2 16/19/2 8/20/2
f 8/21/3 16/22/3 15/23/3 6/24/3
f 2/13/5 13/17/5 14/18/5 4/14/5
usemtl Green
f 12/11/6 5/10/6 1/1/6 9/16/6
f 6/24/6 15/23/6 13/17/6 2/13/6
usemtl white
f 15/23/6 12/11/6 9/16/6 13/17/6
f 16/22/3 10/8/3 12/11/3 15/23/3
